<?xml version="1.0" encoding="UTF-8"?>
<svg width="71px" height="82px" viewBox="0 0 71 82" version="1.1" xmlns="http://www.w3.org/2000/svg" xmlns:xlink="http://www.w3.org/1999/xlink">
    <!-- Generator: sketchtool 52.6 (67491) - http://www.bohemiancoding.com/sketch -->
    <title>E26A0A6F-EBA4-4820-A845-87E0D1CA42FD</title>
    <desc>Created with sketchtool.</desc>
    <defs>
        <linearGradient x1="300.234375%" y1="221.323529%" x2="0%" y2="221.323529%" id="linearGradient-1">
            <stop stop-color="#28A6DE" offset="0%"></stop>
            <stop stop-color="#FFFFFF" offset="100%"></stop>
        </linearGradient>
    </defs>
    <g id="Page-1" stroke="none" stroke-width="1" fill="none" fill-rule="evenodd">
        <g id="001-Home-(Updated)" transform="translate(-228.000000, -975.000000)" fill-rule="nonzero">
            <g id="Hero">
                <g id="icon-investment" transform="translate(228.000000, 975.000000)">
                    <path d="M44.2151627,18.25 C44.5139413,18.25 44.8682576,18.0750937 44.8682576,17.8233535 L44.8682576,17.2936373 C46.8816742,17.0169105 48.5,15.8825182 48.5,13.6743263 C48.5,11.6004373 47.0342272,10.7209085 44.8682576,10.0206585 L44.8682576,7.0160182 C46.4422939,7.12783334 47.2156033,8.25223099 47.9136908,7.2021684 C48.8810306,5.74045146 46.7628658,5.12952882 44.8682576,5.12952882 L44.8682576,4.68101902 C44.8682576,4.42678018 44.5153474,4.25 44.2151627,4.25 C43.8784216,4.25 43.5620678,4.43240228 43.5620678,4.67664632 L43.5620678,5.15514006 C43.0748829,5.21198465 42.6073821,5.31442977 42.1595656,5.46185079 C41.7110461,5.60989644 41.3138463,5.81790997 40.9679661,6.08526674 C40.1489611,6.71867749 39.8347162,7.55323041 39.8347162,8.48398172 C39.8347162,10.5666161 41.5648203,11.2375066 43.5620678,11.9158933 L43.5620678,15.3128234 C41.4931135,15.091692 40.8090862,13.1989558 39.8058929,14.4520346 C38.5847671,15.9749687 41.2618237,17.3361145 43.5620678,17.3361145 L43.5620678,17.8189808 C43.5620678,18.0650991 43.8770156,18.25 44.2151627,18.25 Z M44.7150018,12.3256737 C45.1248557,12.4849635 45.4672209,12.6817329 45.7428003,12.9147332 C46.3431697,13.4238354 46.5393091,14.9530162 44.7150018,15.2965822 L44.7150018,12.3256737 Z M42.6108971,9.11551843 C41.9957647,8.7032393 41.7497116,7.34271823 43.7160267,7.06724068 L43.7160267,9.64523466 C43.2675071,9.48594495 42.8991307,9.30916461 42.6108971,9.11551843 Z" id="Shape" fill="#B8E986"></path>
                    <path d="M69.8572747,25.7632983 C60.1475217,22.4813415 50.4346833,23.2064251 45.6242393,32.2002129 C45.4897073,32.4517085 45.3798601,32.7119628 45.291612,32.977222 L45.291612,22.5489076 C49.7404241,22.0609308 53.5659458,18.8665595 54.8236348,14.4434878 C55.0044506,13.8059898 54.6415846,13.1403394 54.0127401,12.9564098 C53.3838956,12.7731056 52.7272808,13.1403394 52.546465,13.7778374 C51.4689748,17.5671649 47.9989139,20.2135007 44.1067432,20.2135007 C39.2629749,20.2135007 35.3220519,16.2183469 35.3220519,11.307924 C35.3220519,6.39687534 39.2629749,2.40234733 44.1067432,2.40234733 C47.9989139,2.40234733 51.4689748,5.04868314 52.5458479,8.83801065 C52.7272808,9.47488286 53.3845127,9.84211672 54.0127401,9.65943823 C54.6415846,9.47550843 55.0044506,8.80985803 54.8236348,8.17236025 C53.4554815,3.36078382 49.0486335,0 44.1067432,0 C37.9559165,0 32.9523143,5.07245629 32.9523143,11.307924 C32.9523143,17.1373699 37.3264549,21.9495719 42.9218744,22.55141 L42.9218744,28.940778 C41.8036545,26.4577269 39.2327361,23.6549883 35.8990583,22.2217128 C31.7038823,20.4187012 26.4417071,20.5644686 20.2587902,22.6546358 C19.5818105,22.8836095 19.1313134,23.5223587 19.1374847,24.2449396 C19.1436558,24.9668951 19.6046439,25.5968857 20.2834749,25.8133472 C21.4177399,26.1749506 23.0382949,27.0201514 24.3163487,28.9964574 C25.6289611,31.0246892 29.6723259,36.4099512 35.5485346,36.4099512 C38.1132819,36.4099512 40.6471731,35.2588264 41.6246899,34.4643 C42.1190024,35.1280737 42.5577741,35.846901 42.9218744,36.6232846 L42.9218744,43.0770906 C38.792113,43.4893685 35.1924569,46.0374832 33.390469,49.8543376 C32.1247575,49.9481794 31.3286739,50.1383652 30.3591796,50.5118551 C30.3486885,50.5162344 30.3381975,50.5206136 30.3277065,50.5249929 L23.8905364,53.2232543 L23.8732571,53.1769592 C23.4036295,51.9132244 22.0151113,51.276352 20.7679135,51.7530679 C8.12993017,56.5809101 6.78584454,57.0939114 1.66745826,59.0495723 C0.336332097,59.5575687 -0.335093556,61.0609125 0.166007207,62.4109817 L6.81978614,80.3097205 C7.31718411,81.6497799 8.79456747,82.3429572 10.1355674,81.8312071 C12.4460615,80.9490953 26.9347854,75.4136867 29.2360227,74.5340771 C30.4826034,74.0586125 31.112065,72.6503617 30.6418201,71.3866269 L30.6251579,71.3422084 C33.7564206,69.9902625 33.9798178,69.7956973 36.9580348,69.7594118 C37.6121811,69.7519046 38.1367325,69.2076227 38.1287098,68.5444748 C38.1206873,67.8857061 37.5918162,67.3576902 36.9444581,67.3576902 C36.9395212,67.3576902 36.9345842,67.3576902 36.9296473,67.3576902 C33.4978476,67.3989805 32.9047961,67.7430667 29.7889615,69.0918847 L24.7267329,55.4729527 L31.2175923,52.7515435 C33.0998058,52.0283368 34.2488816,52.184114 43.799418,52.184114 C45.9204565,52.184114 46.2290161,53.8957865 46.2734487,54.3556108 C46.2425926,54.7384849 46.0173442,56.3825914 44.4325822,56.6553579 C41.7530507,57.1164334 35.9718783,57.9560038 35.9132521,57.9641367 C35.265894,58.0579783 34.8160142,58.6666982 34.9085821,59.32359 C35.0005328,59.9761026 35.5960528,60.4359269 36.2489649,60.3420852 C36.3075911,60.3339523 42.1190024,59.4900027 44.8287726,59.0239221 C47.3768577,58.5853687 48.3525231,56.4207536 48.5876455,54.9599512 C48.6215871,54.9317988 59.8661154,45.4800635 59.8988228,45.4506597 C61.2608047,44.172536 62.7289312,43.6226236 64.0896789,44.8794767 C65.7947792,46.5974053 64.1847154,48.6681786 63.8335746,49.0773285 C63.5589564,49.375745 61.7612884,51.334534 49.5417118,64.6437884 C49.533072,64.6531726 49.5250495,64.6625568 49.5164099,64.6725666 C47.5669304,66.937905 44.9275117,67.3170253 43.8537245,67.3727049 C43.369903,67.3727049 42.9120005,67.3720791 42.4769316,67.370828 C42.4756972,67.370828 42.4744631,67.370828 42.4732288,67.370828 C41.8203168,67.370828 41.2902114,67.9063512 41.28836,68.5688736 C41.2865087,69.2320216 41.8159969,69.7712984 42.4701432,69.7731753 C42.9157033,69.7744265 43.385331,69.7756778 43.8827289,69.7756778 C43.9012426,69.7756778 43.9203732,69.7750522 43.9395039,69.7738009 C45.2959319,69.7081117 48.7252631,69.234524 51.2887762,66.2666241 C51.3091411,66.2441021 65.596684,50.6832727 65.6164318,50.6601249 C70.2497625,45.2742374 63.8193808,38.4469415 58.3276373,43.6507761 L53.5128735,47.6984812 C51.5103218,45.0590271 48.5629607,43.3986547 45.290995,43.0745881 L45.290995,40.7504422 C45.7038476,39.8652022 46.2055655,39.0500308 46.772698,38.2986715 C47.0250997,38.5132562 47.300952,38.7034421 47.5984034,38.8654754 C54.6064088,42.6785762 61.1367638,39.0950748 65.4195708,32.4742305 C66.8173456,30.3139948 68.5897119,29.3887157 69.8307386,28.9933294 C71.3778564,28.5003477 71.3926672,26.2825557 69.8572747,25.7632983 Z M29.450163,27.1534066 C29.5303885,27.1702982 35.7441614,28.5353819 40.0368423,32.66817 C39.5715345,33.0047489 37.6961093,33.983205 35.5584086,33.983205 C30.9762988,33.9825794 27.6956933,29.8379047 26.2985355,27.6789201 C25.2537526,26.0635917 24.0195143,25.0250769 22.8741411,24.3575498 C34.1155839,21.2294934 38.8488879,26.3382351 40.697777,29.7966142 C40.7625744,29.9173572 40.8137954,30.0431052 40.8551424,30.1707297 C36.1946585,26.1643152 30.2715486,24.8724278 29.9321332,24.8011082 C29.2915634,24.6659761 28.6651874,25.0832589 28.5325069,25.7326433 C28.3992091,26.3814022 28.8102104,27.0176488 29.450163,27.1534066 Z M9.30060519,79.5833858 C9.19446069,79.6234249 9.07782521,79.5708736 9.03771234,79.4626429 L2.38393357,61.5639041 C2.34505502,61.4588014 2.39504164,61.3393096 2.50303753,61.2980192 C6.60934854,59.7289861 12.2417951,57.5775089 15.2237149,56.4382708 C15.5477024,57.3091217 21.697295,73.8527865 22.0206654,74.7236374 C18.6184874,76.0230321 10.6274113,79.0760152 9.30060519,79.5833858 Z M28.4010605,72.2856302 L24.2385916,73.8765598 C24.152812,73.6463348 17.6236914,56.0816724 17.4416412,55.5911932 L21.60411,54.0008892 L21.604727,54.0008892 C21.6652048,53.9746136 28.4837544,72.2543497 28.4010605,72.2856302 Z M51.6886694,49.2324801 C49.418905,51.1399688 50.2532501,50.4386586 48.0853105,52.2616898 C47.2991007,50.7264398 45.8550418,49.7817667 43.799418,49.7817667 C40.3096091,49.7817667 37.8874162,49.7598703 36.1489916,49.7705058 C37.8837136,47.0785004 40.8421829,45.4187537 44.1067432,45.4187537 C47.1275416,45.4187537 49.8947039,46.8270046 51.6886694,49.2324801 Z M63.4386183,31.1560675 C59.8556244,36.6958555 54.5909807,39.9434037 48.7197091,36.7484068 C48.5913483,36.6783384 48.4716271,36.5963833 48.3586942,36.5062952 C53.0099215,31.9693622 59.801935,30.4672695 59.9302957,30.4397426 C60.5714826,30.3046106 60.9831011,29.6689895 60.8504205,29.019605 C60.7177398,28.3702205 60.0895126,27.951061 59.44956,28.0868186 C59.0786713,28.16502 52.5051179,29.5989211 47.4546147,34.0707905 C47.5008987,33.8199205 47.5848269,33.575932 47.7076336,33.345707 C51.6028898,26.0610892 59.3964877,25.2240214 67.311041,27.4818525 C66.0274331,28.1912958 64.6204014,29.3292826 63.4386183,31.1560675 Z" id="Shape" fill="url(#linearGradient-1)"></path>
                </g>
            </g>
        </g>
    </g>
</svg>