<?xml version="1.0" encoding="UTF-8"?>
<svg width="76px" height="76px" viewBox="0 0 76 76" version="1.1" xmlns="http://www.w3.org/2000/svg" xmlns:xlink="http://www.w3.org/1999/xlink">
    <!-- Generator: sketchtool 52.6 (67491) - http://www.bohemiancoding.com/sketch -->
    <title>CD08FE26-FAA6-49A1-B2E8-899F3B52B528</title>
    <desc>Created with sketchtool.</desc>
    <defs>
        <linearGradient x1="300.234375%" y1="221.323529%" x2="0%" y2="221.323529%" id="linearGradient-1">
            <stop stop-color="#28A6DE" offset="0%"></stop>
            <stop stop-color="#FFFFFF" offset="100%"></stop>
        </linearGradient>
    </defs>
    <g id="Page-1" stroke="none" stroke-width="1" fill="none" fill-rule="evenodd">
        <g id="001-Home-(Updated)" transform="translate(-1166.000000, -977.000000)" fill-rule="nonzero">
            <g id="icon-services" transform="translate(1166.000000, 977.000000)">
                <path d="M75.5650781,13.9406563 L62.0572656,0.434773438 C61.7789453,0.156453125 61.4014688,0 61.0078125,0 L16.921875,0 C14.4664219,0 12.46875,1.99767188 12.46875,4.453125 L12.46875,7.2829375 C5.17675781,10.1433281 0,17.2506641 0,25.5447578 C0,26.3644297 0.664703125,27.0291328 1.484375,27.0291328 L19.6072578,27.0291328 C20.4269297,27.0291328 21.0916328,26.3644297 21.0916328,25.5447578 L21.0916328,7.421875 C21.0916328,6.60220313 20.4269297,5.9375 19.6072578,5.9375 C18.1766172,5.9375 16.7818984,6.09291406 15.4375,6.38533594 L15.4375,4.453125 C15.4375,3.63464063 16.1033906,2.96875 16.921875,2.96875 L59.5234375,2.96875 L59.5234375,12.0234375 C59.5234375,14.4788906 61.5211094,16.4765625 63.9765625,16.4765625 L73.03125,16.4765625 L73.03125,71.546875 C73.03125,72.3653594 72.3653594,73.03125 71.546875,73.03125 L16.921875,73.03125 C16.1033906,73.03125 15.4375,72.3653594 15.4375,71.546875 L15.4375,58.8306797 C15.4375,58.0110078 14.7727969,57.3463047 13.953125,57.3463047 C13.1334531,57.3463047 12.46875,58.0110078 12.46875,58.8306797 L12.46875,71.546875 C12.46875,74.0023281 14.4664219,76 16.921875,76 L71.546875,76 C74.0023281,76 76,74.0023281 76,71.546875 L76,14.9902578 C76,14.5966016 75.8435469,14.2189766 75.5650781,13.9406563 Z M18.1227344,8.97200781 L18.1227344,24.0603828 L3.03435938,24.0603828 C3.74403906,16.0673203 10.1298203,9.6816875 18.1227344,8.97200781 Z M63.9765625,13.5078125 C63.1580781,13.5078125 62.4921875,12.8419219 62.4921875,12.0234375 L62.4921875,5.06765625 L70.9335312,13.5078125 L63.9765625,13.5078125 Z" id="Shape" fill="url(#linearGradient-1)"></path>
                <path d="M15.56035,51.4395 C15.2815,51.16035 14.8945,51 14.5,51 C14.1055,51 13.7185,51.16035 13.4395,51.4395 C13.1605,51.7185 13,52.1055 13,52.5 C13,52.8945 13.16035,53.2815 13.4395,53.56035 C13.7185,53.8395 14.1055,54 14.5,54 C14.8945,54 15.2815,53.8395 15.56035,53.56035 C15.8395,53.2815 16,52.8945 16,52.5 C16,52.1055 15.8395,51.7185 15.56035,51.4395 Z" id="Path" fill="url(#linearGradient-1)"></path>
                <path d="M24.4999262,11 C23.6847351,11 23.0236656,11.6610695 23.0236656,12.4762606 L23.0236656,29.0236656 L6.47626059,29.0236656 C5.66106949,29.0236656 5,29.6847351 5,30.4999262 C5,41.2522702 13.7475822,50 24.4999262,50 C35.2522702,50 44,41.2522702 44,30.4999262 C44,19.7475822 35.2522702,11 24.4999262,11 Z M25.9761868,14.0179195 C29.4321128,14.3246865 32.5855531,15.6990851 35.1047918,17.8074805 L25.9761868,26.9359379 L25.9761868,14.0179195 Z M24.4999262,47.0474788 C15.8731022,47.0474788 8.76682653,40.4118351 8.01791953,31.9761868 L24.4999262,31.9761868 C24.9073741,31.9761868 25.276144,31.8111408 25.5433472,31.5442329 C25.5434948,31.5440853 25.5436424,31.5440853 25.5439377,31.5437901 L37.1929624,19.894913 C39.5979385,22.7687495 41.0474788,26.4682585 41.0474788,30.4999262 C41.0474788,39.62425 33.62425,47.0474788 24.4999262,47.0474788 Z" id="Shape" fill="url(#linearGradient-1)"></path>
                <path d="M65.5119554,46 C63.0372476,46 61.0239108,48.0660645 61.0239108,50.605583 C61.0239108,51.2420746 61.1504736,51.8486298 61.3789151,52.4005322 L52.7599246,61.2452473 C52.1676523,60.9491083 51.5028233,60.7825397 50.8008932,60.7825397 C50.1155687,60.7825397 49.4659991,60.9415859 48.8844981,61.2245222 L43.1610444,55.3511757 C43.359416,54.8316659 43.4695227,54.2668679 43.4695227,53.6758181 C43.4695227,51.1362997 41.4561859,49.0702351 38.9814781,49.0702351 C36.5067703,49.0702351 34.4934334,51.1362997 34.4934334,53.6758181 C34.4934334,54.3638922 34.6422869,55.0166569 34.9070816,55.6035617 L29.417455,61.2369572 C28.8326628,60.9498759 28.1783059,60.788834 27.4880446,60.788834 C25.0133368,60.788834 23,62.8548985 23,65.394417 C23,67.9339355 25.0133368,70 27.4880446,70 C29.9627524,70 31.9760892,67.9339355 31.9760892,65.394417 C31.9760892,64.6825474 31.8178109,64.007983 31.5356624,63.4057263 L36.9946207,57.8038022 C37.5940739,58.1089988 38.2684774,58.2814011 38.9817773,58.2814011 C39.7873813,58.2814011 40.5433176,58.0614078 41.1975249,57.6785303 L46.7595586,63.3862293 C46.4735205,63.9918635 46.3128485,64.6710334 46.3128485,65.3881227 C46.3128485,67.9276412 48.3261854,69.9937057 50.8008932,69.9937057 C53.275601,69.9937057 55.2889378,67.9276412 55.2889378,65.3881227 C55.2889378,64.6883811 55.1354466,64.0248701 54.8621247,63.4304429 L63.4006296,54.6683213 C64.0303023,55.0143541 64.7491374,55.211166 65.5119554,55.211166 C67.9866632,55.211166 70,53.1451015 70,50.605583 C70,48.0660645 67.9866632,46 65.5119554,46 Z M27.487895,66.9297649 C26.6629924,66.9297649 25.9918801,66.2410767 25.9918801,65.3945705 C25.9918801,64.5480644 26.6629924,63.8593762 27.487895,63.8593762 C27.889575,63.8593762 28.2538546,64.0234885 28.5228381,64.2887701 C28.5288222,64.2952179 28.5340582,64.3021262 28.5401919,64.3084205 C28.5473727,64.3157895 28.555152,64.3219303 28.5624825,64.3289921 C28.8227891,64.6053271 28.9839099,64.9808357 28.9839099,65.3945705 C28.9839099,66.2409232 28.3127976,66.9297649 27.487895,66.9297649 Z M38.9814781,55.2110125 C38.1565755,55.2110125 37.4854632,54.5223243 37.4854632,53.6758181 C37.4854632,52.829312 38.1565755,52.1406238 38.9814781,52.1406238 C39.8063807,52.1406238 40.4774929,52.829312 40.4774929,53.6758181 C40.4774929,54.5223243 39.8063807,55.2110125 38.9814781,55.2110125 Z M50.8005939,66.923317 C49.9756913,66.923317 49.3045791,66.2346289 49.3045791,65.3881227 C49.3045791,64.5416166 49.9756913,63.8529284 50.8005939,63.8529284 C51.6254965,63.8529284 52.2966088,64.5416166 52.2966088,65.3881227 C52.2966088,66.2346289 51.6254965,66.923317 50.8005939,66.923317 Z M65.5116562,52.1406238 C64.6867536,52.1406238 64.0156413,51.4519356 64.0156413,50.6054295 C64.0156413,49.7589233 64.6869032,49.0702351 65.5116562,49.0702351 C66.3365588,49.0702351 67.0076711,49.7589233 67.0076711,50.6054295 C67.0076711,51.4519356 66.3365588,52.1406238 65.5116562,52.1406238 Z" id="Shape" fill="#B8E986"></path>
                <path d="M57.488575,35 L49.511425,35 C48.6768161,35 48,35.6717 48,36.5 C48,37.3283 48.676665,38 49.511425,38 L57.488575,38 C58.3231839,38 59,37.3283 59,36.5 C59,35.6717 58.3231839,35 57.488575,35 Z" id="Path" fill="url(#linearGradient-1)"></path>
                <path d="M65.56035,35.4395 C65.2815,35.1605 64.8945,35 64.5,35 C64.1055,35 63.7185,35.16035 63.4395,35.4395 C63.1605,35.7185 63,36.1055 63,36.5 C63,36.8945 63.16035,37.2815 63.4395,37.56035 C63.7185,37.83935 64.104,38 64.5,38 C64.8945,38 65.2815,37.8395 65.56035,37.56035 C65.83935,37.2815 66,36.8945 66,36.5 C66,36.1055 65.8395,35.7185 65.56035,35.4395 Z" id="Path" fill="url(#linearGradient-1)"></path>
                <path d="M68.4523826,21 L49.5476174,21 C48.6930231,21 48,21.6717 48,22.5 C48,23.3283 48.6928683,24 49.5476174,24 L68.4523826,24 C69.3069769,24 70,23.3283 70,22.5 C70,21.6717 69.3069769,21 68.4523826,21 Z" id="Path" fill="url(#linearGradient-1)"></path>
                <path d="M68.4523826,28 L49.5476174,28 C48.6930231,28 48,28.6717 48,29.5 C48,30.3283 48.6928683,31 49.5476174,31 L68.4523826,31 C69.3069769,31 70,30.3283 70,29.5 C70,28.6717 69.3069769,28 68.4523826,28 Z" id="Path" fill="url(#linearGradient-1)"></path>
            </g>
        </g>
    </g>
</svg>