<?xml version="1.0" encoding="UTF-8"?>
<svg width="79px" height="79px" viewBox="0 0 79 79" version="1.1" xmlns="http://www.w3.org/2000/svg" xmlns:xlink="http://www.w3.org/1999/xlink">
    <!-- Generator: sketchtool 52.6 (67491) - http://www.bohemiancoding.com/sketch -->
    <title>05BF27C3-4911-4817-977B-4F00F0B60CAB</title>
    <desc>Created with sketchtool.</desc>
    <defs>
        <linearGradient x1="300.234375%" y1="221.323529%" x2="0%" y2="221.323529%" id="linearGradient-1">
            <stop stop-color="#28A6DE" offset="0%"></stop>
            <stop stop-color="#FFFFFF" offset="100%"></stop>
        </linearGradient>
    </defs>
    <g id="Page-1" stroke="none" stroke-width="1" fill="none" fill-rule="evenodd">
        <g id="001-Home-(Updated)" transform="translate(-698.000000, -975.000000)" fill-rule="nonzero">
            <g id="icon-fees" transform="translate(698.000000, 975.000000)">
                <path d="M22.1637143,0 L0,21.8562673 L9.27281849,31 L10.1496662,30.1354679 C14.4831153,25.8621308 14.7602177,19.0801434 10.9812821,14.4857466 L14.690286,10.8281926 C16.1986801,12.0358583 17.9764579,12.8576129 19.8964147,13.2241903 L20.3678746,10.8233211 C18.9360503,10.5499104 17.6042607,9.95543988 16.4561769,9.08679746 L22.1637143,3.45843298 L26.246459,7.48484789 L28,5.75578363 L22.1637143,0 Z M9.21539115,27.4850885 L3.50708193,21.8562673 L9.21554552,16.2269895 C11.7855737,19.5357772 11.7857281,24.1763007 9.21539115,27.4850885 Z" id="Shape" fill="#FFFFFF"></path>
                <polygon id="Rectangle" fill="#B8E986" transform="translate(43.272454, 23.984067) rotate(-18.474808) translate(-43.272454, -23.984067) " points="42.1336991 22.8453113 44.4112097 22.8453113 44.4112097 25.1228218 42.1336991 25.1228218"></polygon>
                <path d="M52.1419175,1 L22,10.9725696 L28.8148577,30.9862073 L31.1972876,30.1908813 L28.6099831,22.5926666 C33.750316,20.264029 36.573954,14.6477753 35.3476803,9.18107149 L40.3936362,7.51153781 C42.3706993,11.8208967 46.7233059,14.495281 51.3579475,14.495281 C52.2165739,14.495281 53.0847475,14.4010569 53.9493213,14.2110589 L59.6152224,31 L62,30.2110279 L52.1419175,1 Z M27.8008146,20.2161421 L25.1878421,12.5426101 L32.9445907,9.9762425 C33.7551678,14.133572 31.6364611,18.3488617 27.8008146,20.2161421 Z M42.7953172,6.71698669 L50.5542569,4.14999923 L53.1471959,11.8331396 C48.9407718,12.6368342 44.6753427,10.5291893 42.7953172,6.71698669 Z" id="Shape" fill="#B8E986"></path>
                <path d="M44.0331585,26.5716132 C42.4861347,27.106813 41.091567,27.9944696 40,29.1382633 L41.8207121,31 C42.6311034,30.1506074 43.6764716,29.4880811 44.844187,29.0841661 C47.6478192,28.1140442 50.6034296,28.8377598 51.8716674,30.8047222 L54,29.3337061 C52.072234,26.3441739 47.97376,25.2082968 44.0331585,26.5716132 Z" id="Path" fill="#B8E986"></path>
                <rect id="Rectangle" fill="url(#linearGradient-1)" x="49.3" y="38.65" width="3" height="3"></rect>
                <rect id="Rectangle" fill="url(#linearGradient-1)" x="29.7" y="38.65" width="3" height="3"></rect>
                <rect id="Rectangle" fill="url(#linearGradient-1)" x="24.8" y="38.65" width="3" height="3"></rect>
                <rect id="Rectangle" fill="url(#linearGradient-1)" x="15" y="38.65" width="3" height="3"></rect>
                <rect id="Rectangle" fill="url(#linearGradient-1)" x="44.4" y="38.65" width="3" height="3"></rect>
                <rect id="Rectangle" fill="url(#linearGradient-1)" x="19.9" y="38.65" width="3" height="3"></rect>
                <rect id="Rectangle" fill="url(#linearGradient-1)" x="39.5" y="38.65" width="3" height="3"></rect>
                <rect id="Rectangle" fill="url(#linearGradient-1)" x="64" y="38.65" width="3" height="3"></rect>
                <rect id="Rectangle" fill="url(#linearGradient-1)" x="54.2" y="38.65" width="3" height="3"></rect>
                <rect id="Rectangle" fill="url(#linearGradient-1)" x="59.1" y="38.65" width="3" height="3"></rect>
                <rect id="Rectangle" fill="url(#linearGradient-1)" x="34.6" y="38.65" width="3" height="3"></rect>
                <rect id="Rectangle" fill="url(#linearGradient-1)" x="15" y="71.35" width="3" height="3"></rect>
                <rect id="Rectangle" fill="url(#linearGradient-1)" x="64" y="71.35" width="3" height="3"></rect>
                <rect id="Rectangle" fill="url(#linearGradient-1)" x="59.1" y="71.35" width="3" height="3"></rect>
                <rect id="Rectangle" fill="url(#linearGradient-1)" x="54.2" y="71.35" width="3" height="3"></rect>
                <rect id="Rectangle" fill="url(#linearGradient-1)" x="44.4" y="71.35" width="3" height="3"></rect>
                <rect id="Rectangle" fill="url(#linearGradient-1)" x="49.3" y="71.35" width="3" height="3"></rect>
                <rect id="Rectangle" fill="url(#linearGradient-1)" x="19.9" y="71.35" width="3" height="3"></rect>
                <rect id="Rectangle" fill="url(#linearGradient-1)" x="39.5" y="71.35" width="3" height="3"></rect>
                <rect id="Rectangle" fill="url(#linearGradient-1)" x="29.7" y="71.35" width="3" height="3"></rect>
                <rect id="Rectangle" fill="url(#linearGradient-1)" x="24.8" y="71.35" width="3" height="3"></rect>
                <rect id="Rectangle" fill="url(#linearGradient-1)" x="34.6" y="71.35" width="3" height="3"></rect>
                <path d="M71.036997,47.0908674 L71.036997,34 L9,34 L9,79 L71.036997,79 L71.036997,66.7272449 L76,66.7272449 L76,47.0908674 L71.036997,47.0908674 Z M68.5554182,76.5455101 L11.4814243,76.5455101 L11.4814243,74.0910202 L12.7222136,74.0910202 L12.7222136,71.6363775 L11.4814243,71.6363775 L11.4814243,41.3636225 L12.7222136,41.3636225 L12.7222136,38.9091326 L11.4814243,38.9091326 L11.4814243,36.4546427 L68.5554182,36.4546427 L68.5554182,47.0910202 L55.320898,47.0910202 C49.8477996,47.0910202 45.3950465,51.4954413 45.3950465,56.9091326 C45.3950465,62.3228238 49.8477996,66.7272449 55.320898,66.7272449 L68.5554182,66.7272449 L68.5554182,76.5455101 Z M73.5184213,64.2727551 L55.320898,64.2727551 C51.2160356,64.2727551 47.8764707,60.9694392 47.8764707,56.9091326 C47.8764707,52.848826 51.2160356,49.5455101 55.320898,49.5455101 L73.5184213,49.5455101 L73.5184213,64.2727551 Z" id="Shape" fill="url(#linearGradient-1)"></path>
                <path d="M68.5,0 C62.7104182,0 58,4.71041819 58,10.5 C58,16.2895818 62.7104182,21 68.5,21 C74.2895818,21 79,16.2895818 79,10.5 C79,4.71041819 74.2895818,0 68.5,0 Z M68.5,18.4799121 C64.0998865,18.4799121 60.5200879,14.8999567 60.5200879,10.5 C60.5200879,6.09988645 64.1000433,2.52008785 68.5,2.52008785 C72.9001135,2.52008785 76.4799121,6.10004333 76.4799121,10.5 C76.480069,14.9001135 72.9001135,18.4799121 68.5,18.4799121 Z" id="Shape" fill="url(#linearGradient-1)"></path>
                <path d="M71.4102346,11.3374039 C71.3501967,11.1429505 71.2669889,10.9708341 71.1601739,10.8215135 C71.0535046,10.6720399 70.9278914,10.5423024 70.7837713,10.4323009 C70.6395055,10.3222993 70.4841648,10.2248432 70.3174576,10.1403914 C70.1507505,10.0557866 69.9776315,9.9811263 69.7978093,9.91625753 C69.6179871,9.85138875 69.4383106,9.79141574 69.2584884,9.73633847 L69.4550687,7.6424846 C69.57121,7.67782584 69.6807937,7.71913378 69.7836742,7.76640843 C69.8867003,7.81353009 69.983169,7.85789788 70.0729344,7.89905284 C70.1628455,7.94036078 70.245179,7.97478407 70.3200806,8.0023227 C70.3949823,8.02986133 70.462452,8.04363065 70.5223442,8.04363065 C70.6122553,8.04363065 70.6899257,8.02098777 70.755501,7.97585502 C70.8210764,7.93056927 70.8856317,7.85881584 70.9493127,7.76059472 L71.3762811,7.10594028 C71.1740176,6.90536725 70.9268713,6.71764559 70.6346967,6.54262229 C70.342522,6.36759899 69.9942439,6.2407683 69.5897168,6.16213021 L69.7023607,5 L69.061908,5 C68.9307573,5 68.824088,5.04482677 68.7416088,5.1347863 C68.6592753,5.22474582 68.6123525,5.3257208 68.6011318,5.43755824 L68.5393452,6.10292215 C68.1047991,6.10292215 67.7190703,6.17895937 67.3820129,6.33088082 C67.0449556,6.48295526 66.7612328,6.67725559 66.5308447,6.91393483 C66.3004566,7.15061406 66.1254432,7.41697381 66.0055132,7.7128611 C65.8857289,8.00890138 65.825691,8.31289726 65.825691,8.62438977 C65.825691,9.04664877 65.8921407,9.3979193 66.0251858,9.67804837 C66.1580852,9.95817744 66.3313499,10.189043 66.5448341,10.3706449 C66.7583184,10.5522469 66.9980327,10.6962127 67.2639773,10.8026954 C67.5299218,10.9091782 67.797615,11.0018915 68.0673483,11.0808356 L67.8595473,13.3103937 C67.6909457,13.2632721 67.5409967,13.2032991 67.4101375,13.1304747 C67.2789867,13.0576503 67.1583281,12.9858969 67.0477243,12.9152144 C66.9372662,12.8443789 66.8351144,12.7844059 66.7415602,12.7352953 C66.6477146,12.6861848 66.5562005,12.661553 66.4662894,12.661553 C66.3801671,12.661553 66.2987079,12.6841959 66.2219119,12.7293286 C66.1451158,12.7746144 66.0842036,12.8306096 66.0393209,12.8974673 L65.5,13.7173535 C65.7695876,13.9808064 66.1002332,14.2058582 66.4914995,14.3926619 C66.8827658,14.5794656 67.2939962,14.7101211 67.7246078,14.7849344 L67.6122553,16 L68.252708,16 C68.3838587,16 68.490528,15.9557852 68.5728615,15.8673556 C68.655195,15.778926 68.7021178,15.6796339 68.7133385,15.5694794 L68.7808083,14.8322091 C69.2152086,14.7968678 69.6010832,14.6995647 69.9381406,14.5402996 C70.2751979,14.3810345 70.5596493,14.1755657 70.7920775,13.9238932 C71.02436,13.6722208 71.200102,13.3823002 71.3201778,13.0539785 C71.4399621,12.7258098 71.5,12.3746923 71.5,12.0010849 C71.5,11.7532372 71.4701268,11.5320102 71.4102346,11.3374039 Z M68.2304124,9.38231408 C68.0019187,9.28393997 67.8174333,9.16307598 67.6771021,9.01956912 C67.5367708,8.87606225 67.4663866,8.68834059 67.4663866,8.45625113 C67.4663866,8.35405221 67.4832904,8.25674905 67.5169524,8.16434165 C67.5506145,8.07208723 67.6040948,7.98840039 67.6771021,7.91374011 C67.7501093,7.83907982 67.8457036,7.775129 67.9635935,7.72204064 C68.0816292,7.66895228 68.2267693,7.62871528 68.3990139,7.60117665 L68.2304124,9.38231408 Z M68.9212853,13.345888 L69.1011075,11.3995188 C69.3258124,11.4899373 69.506509,11.6020807 69.6431972,11.7356431 C69.7798854,11.8692054 69.8482295,12.0482065 69.8482295,12.2723404 C69.8482295,12.8740594 69.5392966,13.2319086 68.9212853,13.345888 Z" id="Shape" fill="url(#linearGradient-1)"></path>
                <path d="M54.4999236,52.25 C52.0185402,52.25 50,54.2687273 50,56.75 C50,59.2312727 52.018693,61.25 54.4999236,61.25 C56.981307,61.25 59,59.2312727 59,56.75 C59,54.2687273 56.981307,52.25 54.4999236,52.25 Z M54.4999236,58.7956212 C53.3719248,58.7956212 52.4544899,57.8781707 52.4544899,56.7501528 C52.4544899,55.6221349 53.3719248,54.7046844 54.4999236,54.7046844 C55.6279224,54.7046844 56.5453573,55.6221349 56.5453573,56.7501528 C56.5453573,57.8781707 55.6277696,58.7956212 54.4999236,58.7956212 Z" id="Shape" fill="url(#linearGradient-1)"></path>
            </g>
        </g>
    </g>
</svg>