<svg id="Layer_1" data-name="Layer 1" xmlns="http://www.w3.org/2000/svg" viewBox="0 0 399.82 356.83"><defs><style>.cls-1{fill:#aea075;}</style></defs><title>logo</title><path class="cls-1" d="M211,386.44l8.95-2.1c1.35-.32,2.75-.6,4.2-.87a18.14,18.14,0,0,1,4.27-.29,11.21,11.21,0,0,1,3.92.91,8,8,0,0,1,3.24,2.73,14.74,14.74,0,0,1,2.21,5.14,33.31,33.31,0,0,1,.82,8.14v16.5a38.56,38.56,0,0,1-.82,8.54,23.32,23.32,0,0,1-2.21,6.17,15.77,15.77,0,0,1-3.24,4.24,19.1,19.1,0,0,1-3.92,2.77,22.75,22.75,0,0,1-4.27,1.72c-1.45.42-2.85.79-4.2,1.1L211,443.27Zm10.81,48.26a12.64,12.64,0,0,0,3.84-1.51,6.74,6.74,0,0,0,2.4-2.68,13.5,13.5,0,0,0,1.22-4.41,56.17,56.17,0,0,0,.33-6.68V401.79a52.07,52.07,0,0,0-.33-6.52,9.15,9.15,0,0,0-1.22-3.84,3.44,3.44,0,0,0-2.4-1.55,10.08,10.08,0,0,0-3.84.31l-2.19.52v44.51Z" transform="translate(-97.87 -243.07)"/><path class="cls-1" d="M245,378.45l8.61-2v56.81l-8.61,2Z" transform="translate(-97.87 -243.07)"/><path class="cls-1" d="M273.4,429.09a14.65,14.65,0,0,1-2.32.33,8.39,8.39,0,0,1-5.52-1.59,8.79,8.79,0,0,1-2.44-2.81,17.39,17.39,0,0,1-1.76-4.78,33.16,33.16,0,0,1-.66-7.18V392.93a36.18,36.18,0,0,1,.7-7.5,24,24,0,0,1,1.86-5.56,16.16,16.16,0,0,1,2.68-3.95,16.58,16.58,0,0,1,6.38-4.23,25.52,25.52,0,0,1,3-.89,15.07,15.07,0,0,1,5.83-.43,7.52,7.52,0,0,1,3.87,1.68,7.39,7.39,0,0,1,2.13,3.34,14.82,14.82,0,0,1,.64,4.5,26.5,26.5,0,0,1-.21,3.43c-.15,1.07-.33,2.25-.58,3.55L280,388.5v-2.69q0-9.35-5-8.17a6.6,6.6,0,0,0-2.36,1,5.52,5.52,0,0,0-1.66,2,10.76,10.76,0,0,0-1,3.17,29.65,29.65,0,0,0-.32,4.64v25.75a24.92,24.92,0,0,0,.32,4.35,6.56,6.56,0,0,0,1,2.6,2.67,2.67,0,0,0,1.62,1.13,5.27,5.27,0,0,0,2.35-.1,5.2,5.2,0,0,0,2.46-1.33,7.82,7.82,0,0,0,1.7-2.44,13.52,13.52,0,0,0,1-3.3,23.61,23.61,0,0,0,.32-3.9v-7.41l-4.43,1v-5.66l12.81-3v28.77l-5.73,1.35-.93-5.16a16.2,16.2,0,0,1-3.74,5.42A11.28,11.28,0,0,1,273.4,429.09Z" transform="translate(-97.87 -243.07)"/><path class="cls-1" d="M295.39,366.55l8.61-2v56.83l-8.61,2Z" transform="translate(-97.87 -243.07)"/><path class="cls-1" d="M317.62,368.1l-9.15,2.15v-6.78l26.88-6.34v6.78l-9.11,2.15v50l-8.61,2Z" transform="translate(-97.87 -243.07)"/><path class="cls-1" d="M346.07,354.6l9.89-2.34,10.52,54.35-8.72,2.05-1.56-9.81-10.38,2.45-1.49,10.53-8.76,2.06Zm9.14,38-4-27.37-.37.08-4,29.27Z" transform="translate(-97.87 -243.07)"/><path class="cls-1" d="M370.61,348.81l8.62-2v50L391,394v6.78l-20.37,4.81Z" transform="translate(-97.87 -243.07)"/><path class="cls-1" d="M215.58,351.72l-4.82,1.14v-3.58l14.16-3.34v3.58l-4.8,1.13V377l-4.54,1.07Z" transform="translate(-97.87 -243.07)"/><path class="cls-1" d="M227.28,345.39l4.54-1.07v12.53l5.39-1.27V343l4.53-1.06v29.94L237.2,373V359.16l-5.39,1.27v13.83l-4.54,1.07Z" transform="translate(-97.87 -243.07)"/><path class="cls-1" d="M246.17,340.93l11.1-2.62v3.57l-6.56,1.55v9l5.07-1.19v3.58L250.71,356v10.25l6.73-1.58v3.58l-11.27,2.66Z" transform="translate(-97.87 -243.07)"/><path class="cls-1" d="M210.46,452.19l21.06-5V454l-12.45,2.93v17l9.62-2.27v6.79l-9.62,2.26v19.46l12.77-3V504l-21.39,5Z" transform="translate(-97.87 -243.07)"/><path class="cls-1" d="M236.71,446,248,443.35l5.46,20.7c.56,2.3,1,4.52,1.35,6.65s.65,4.13,1,6l.26-.06c.31-2,.64-4.18,1-6.46s.79-4.72,1.36-7.29L264,439.57,275,437v56.81l-8.06,1.9v-18.8q0-4.31.1-8.33c0-2.68.12-5.13.21-7.39s.18-4.23.29-6,.21-3.11.3-4.12l-.64.14-8.58,39.12-5.45,1.29-8.65-35.06-.63.15c.09,1,.19,2.3.3,4s.2,3.63.29,5.84.16,4.64.22,7.28.07,5.42.07,8.3v18.8l-8,1.9Z" transform="translate(-97.87 -243.07)"/><path class="cls-1" d="M283.32,435l8.72-2.06q1.93-.45,4-.8a24.09,24.09,0,0,1,4-.38,14.18,14.18,0,0,1,3.72.4,7.4,7.4,0,0,1,3.08,1.55,7.69,7.69,0,0,1,2.1,3.05,13.07,13.07,0,0,1,.78,4.89v2.76a14,14,0,0,1-.65,4.31,17.3,17.3,0,0,1-1.7,3.75,15.21,15.21,0,0,1-2.43,3,11.2,11.2,0,0,1-2.81,1.95v.26c2.82-.15,5,.68,6.38,2.51s2.15,4.42,2.15,7.79v2.9a20.83,20.83,0,0,1-.68,5.53,16.19,16.19,0,0,1-1.92,4.34,14.76,14.76,0,0,1-2.94,3.34,20.55,20.55,0,0,1-3.72,2.5,27.8,27.8,0,0,1-4.33,1.81c-1.53.51-3.09,1-4.71,1.34l-9.05,2.14Zm10.11,21.93a13.15,13.15,0,0,0,3.16-1.16A8.6,8.6,0,0,0,299,453.9a7.83,7.83,0,0,0,1.57-2.66,10.94,10.94,0,0,0,.55-3.54v-2.33a12.73,12.73,0,0,0-.41-3.43,4.81,4.81,0,0,0-1.31-2.29,4.27,4.27,0,0,0-2.4-1,10.24,10.24,0,0,0-3.61.3l-1.66.39v18Zm.8,26.32a12.11,12.11,0,0,0,3.14-1.18,8.67,8.67,0,0,0,2.42-2,8.38,8.38,0,0,0,1.57-2.79,11,11,0,0,0,.55-3.59v-4.42a13.68,13.68,0,0,0-.39-3.45,4.73,4.73,0,0,0-1.32-2.28,4.29,4.29,0,0,0-2.37-1,10,10,0,0,0-3.6.3l-2.46.58v20.43Z" transform="translate(-97.87 -243.07)"/><path class="cls-1" d="M323,425.64,333,423.3l10.52,54.34-8.72,2.05-1.56-9.81-10.38,2.45-1.5,10.53-8.74,2.06Zm9.15,38-4-27.36-.37.08-4,29.26Z" transform="translate(-97.87 -243.07)"/><path class="cls-1" d="M345.41,465.68a25.24,25.24,0,0,1,.2-3.43c.15-1.06.36-2.23.64-3.5l6.7-1.57v2.76a24.83,24.83,0,0,0,.28,4,7.7,7.7,0,0,0,.93,2.75,3.13,3.13,0,0,0,1.74,1.42,4.88,4.88,0,0,0,2.65,0,6.53,6.53,0,0,0,3.75-2.24,6.72,6.72,0,0,0,1.3-4.24,14.35,14.35,0,0,0-.19-2.41,8.66,8.66,0,0,0-.63-2.06,11.63,11.63,0,0,0-1.22-2,22.72,22.72,0,0,0-2-2.25l-9-8.56a19.87,19.87,0,0,1-3.69-5.3,15,15,0,0,1-1.29-6.33,16.5,16.5,0,0,1,.88-5.39,15.5,15.5,0,0,1,6.65-8.3,18.13,18.13,0,0,1,5.54-2.26,15.63,15.63,0,0,1,6.26-.42,8,8,0,0,1,4,1.86,7.42,7.42,0,0,1,2.1,3.37,14.17,14.17,0,0,1,.62,4.16,20.1,20.1,0,0,1-.29,3.45c-.19,1.07-.4,2.26-.64,3.56l-6.66,1.57v-2.7q0-4.52-1.3-6.63t-4.23-1.41a6,6,0,0,0-3.63,2.2,6.38,6.38,0,0,0-1.2,3.89,10.21,10.21,0,0,0,.2,2.12,6.93,6.93,0,0,0,.52,1.66,8.3,8.3,0,0,0,.85,1.38c.33.43.71.87,1.13,1.33l10,9.74a25.15,25.15,0,0,1,4.2,5.85,14.71,14.71,0,0,1,1.46,6.58,16.87,16.87,0,0,1-1,5.69,15.49,15.49,0,0,1-2.72,4.76,16.52,16.52,0,0,1-4.24,3.61,19.49,19.49,0,0,1-5.63,2.24,16.71,16.71,0,0,1-6.4.48,8,8,0,0,1-4.05-1.77A7.18,7.18,0,0,1,346,470,14.63,14.63,0,0,1,345.41,465.68Z" transform="translate(-97.87 -243.07)"/><path class="cls-1" d="M375.84,458.49a25.19,25.19,0,0,1,.22-3.43c.15-1.07.36-2.23.64-3.5l6.69-1.58v2.76a22.92,22.92,0,0,0,.29,4,7.67,7.67,0,0,0,.92,2.76,3.21,3.21,0,0,0,1.73,1.42,4.79,4.79,0,0,0,2.64,0,6.39,6.39,0,0,0,3.75-2.23,6.63,6.63,0,0,0,1.31-4.25,15.24,15.24,0,0,0-.19-2.41,8.31,8.31,0,0,0-.64-2.06,10.78,10.78,0,0,0-1.21-2,21.58,21.58,0,0,0-2-2.25l-9-8.56a19.15,19.15,0,0,1-3.69-5.31,14.89,14.89,0,0,1-1.31-6.33,16.41,16.41,0,0,1,.89-5.4,15.91,15.91,0,0,1,2.54-4.67,16.16,16.16,0,0,1,4.11-3.64,18.35,18.35,0,0,1,5.54-2.25,15.46,15.46,0,0,1,6.26-.41,8,8,0,0,1,4,1.85,7.53,7.53,0,0,1,2.1,3.38,13.67,13.67,0,0,1,.62,4.16,20,20,0,0,1-.28,3.44c-.19,1.08-.41,2.26-.64,3.56l-6.66,1.57v-2.69q0-4.53-1.29-6.63c-.87-1.4-2.28-1.87-4.23-1.42a6,6,0,0,0-3.64,2.2,6.48,6.48,0,0,0-1.19,3.89,11,11,0,0,0,.19,2.12,7.2,7.2,0,0,0,.53,1.65,7.79,7.79,0,0,0,.85,1.38c.33.43.71.87,1.13,1.33l10,9.75a24.82,24.82,0,0,1,4.2,5.85,14.57,14.57,0,0,1,1.46,6.59,16.66,16.66,0,0,1-.95,5.68,15.68,15.68,0,0,1-2.71,4.76,16.75,16.75,0,0,1-4.27,3.62,19.61,19.61,0,0,1-5.61,2.24,16.54,16.54,0,0,1-6.4.48,8.1,8.1,0,0,1-4.07-1.77,7.18,7.18,0,0,1-2.12-3.36A14.4,14.4,0,0,1,375.84,458.49Z" transform="translate(-97.87 -243.07)"/><path class="cls-1" d="M415.23,441.79,403.78,406.6l8.68-2,7,25.54.4-.09,6.88-28.8,8.65-2-11.51,40.61v18.93l-8.61,2Z" transform="translate(-97.87 -243.07)"/><path class="cls-1" d="M97.87,365.83,145.74,354v-25.6l351.95-85.37V477.14L183.33,553.4v25.67L97.87,599.9Zm6.63,225.63,68.13-16.61-26.88-13.14V360.87L104.5,371Zm47.87-37.38,338.69-82.16V251.5L152.37,333.66Z" transform="translate(-97.87 -243.07)"/><path class="cls-1" d="M147,329.42V355L99.11,366.8V598.32l83-20.23V552.42l314.36-76.25V244.65ZM103.26,593v-223L147,359.29V560.93l29.28,14.31Zm389-120.14L151.13,555.66v-223L492.3,249.92Z" transform="translate(-97.87 -243.07)"/></svg>